<svg xmlns="http://www.w3.org/2000/svg" width="67.011" height="51.684" viewBox="0 0 67.011 51.684">
  <g id="Group_2238" data-name="Group 2238" transform="translate(-151.596 -121.293)">
    <path id="Path_1584" data-name="Path 1584" d="M336.822,245.568a62.311,62.311,0,0,1-13.55-1.485,5.3,5.3,0,0,0-6.117,3.385l-13.518,37.283a5.308,5.308,0,0,0,3.569,6.934,112.818,112.818,0,0,0,59.232,0,5.308,5.308,0,0,0,3.569-6.934l-13.518-37.283a5.3,5.3,0,0,0-6.117-3.385A62.3,62.3,0,0,1,336.822,245.568Z" transform="translate(-151.72 -122.665)" fill="#fff"/>
    <g id="Group_385" data-name="Group 385" transform="translate(176.514 137.845)">
      <g id="Group_384" data-name="Group 384">
        <g id="Group_383" data-name="Group 383">
          <g id="Group_382" data-name="Group 382">
            <path id="Path_1593" data-name="Path 1593" d="M364.779,287.445a4.049,4.049,0,1,0-3.8-2.672A4.035,4.035,0,0,0,364.779,287.445Zm1.348.485-.911.868,1.184,5.255-1.621,1.608-1.621-1.608,1.184-5.255-.911-.868a8.154,8.154,0,0,0-6.8,8.04h16.305A8.154,8.154,0,0,0,366.127,287.93Z" transform="translate(-356.626 -279.371)" fill="#474a54"/>
          </g>
        </g>
      </g>
    </g>
  </g>
</svg>
