<svg xmlns="http://www.w3.org/2000/svg" width="56.198" height="52.296" viewBox="0 0 56.198 52.296">
  <g id="Group_2240" data-name="Group 2240" transform="translate(-240.781 -64.094)">
    <path id="Path_1587" data-name="Path 1587" d="M500.082,126.255a61.72,61.72,0,0,1-5.437,18.553,5.338,5.338,0,0,0,1.909,6.794l33.358,21.432a5.315,5.315,0,0,0,7.559-1.953,111.521,111.521,0,0,0,12.83-43.754,5.32,5.32,0,0,0-5.3-5.744H505.357A5.329,5.329,0,0,0,500.082,126.255Z" transform="translate(-253.34 -57.491)" fill="#fff"/>
    <g id="Group_391" data-name="Group 391" transform="translate(260.495 75.981)">
      <path id="Path_1597" data-name="Path 1597" d="M538.424,153.04a2.125,2.125,0,1,0,2.125,2.125A2.125,2.125,0,0,0,538.424,153.04Zm1.395,1.643-1.686,1.686a.337.337,0,0,1-.476,0l-.742-.742a.337.337,0,0,1,.476-.476l.5.5,1.448-1.448a.336.336,0,0,1,.476.476Zm-1.395,4.2a2.125,2.125,0,1,0,2.125,2.125A2.125,2.125,0,0,0,538.424,158.883Zm6.59-8.08h9.85a1.662,1.662,0,0,0,0-3.323h-9.85a1.662,1.662,0,0,0,0,3.323Zm9.85,2.556h-9.85a1.662,1.662,0,0,0,0,3.323h9.85a1.662,1.662,0,0,0,0-3.323Zm0,5.88h-9.85a1.662,1.662,0,0,0,0,3.323h9.85a1.662,1.662,0,0,0,0-3.323Zm-16.439-12.223a2.125,2.125,0,1,0,2.125,2.125A2.125,2.125,0,0,0,538.424,147.016Z" transform="translate(-536.299 -147.016)" fill="#474a54"/>
    </g>
  </g>
</svg>
